<svg xmlns="http://www.w3.org/2000/svg" viewBox="0 0 529.2 484">
  <path fill="#fff" d="M305.4 423.7v5.7h8v-53h-8v20.9c-3.1-4.3-7.2-6.4-12.3-6.4s-9.5 1.8-13.1 5.3-5.5 8.2-5.5 14.1 1.8 10.7 5.4 14.3c3.6 3.6 7.8 5.4 12.6 5.4 5.6 0 9.9-2.1 12.9-6.3zm-22.9-13.1c0-3.6 1.1-6.7 3.4-9.1 2.3-2.4 5-3.6 8.2-3.6s5.9 1.2 8.1 3.6 3.3 5.5 3.3 9.1-1.1 6.6-3.3 8.9-4.9 3.5-8 3.5-5.9-1.1-8.2-3.4-3.5-5.4-3.5-9zm50.5 2.5c0-4.3 1-7.8 3-10.4s5-3.9 8.9-3.9h.4l-.1-8.1c-2.5 0-4.8.8-7 2.4s-4 3.5-5.2 5.9v-7.6h-8v38h8v-16.3zm48.6 5.5c-2.5 3-6.1 4.5-10.9 4.5-3 0-5.7-.8-8-2.5s-3.6-3.9-3.8-6.7h29.8v-5.5c0-5.5-1.8-9.8-5.4-12.9s-8-4.7-13.2-4.7-9.7 1.8-13.5 5.3-5.7 8.3-5.7 14.3 1.9 10.8 5.6 14.3 8.3 5.3 13.6 5.3a21 21 0 0 0 16-6.4l-4.5-5zm-19.2-18.2c2.3-1.8 5-2.7 7.9-2.7s5.4.9 7.4 2.6c2 1.7 3 4.2 3 7.4h-21.8c0-3.1 1.2-5.6 3.5-7.3zm65.9 29v-24.5c0-4.9-1.4-8.4-4.2-10.7a16.8 16.8 0 0 0-11-3.4c-5.9 0-11.1 1.8-15.7 5.5l3.6 5c3.8-2.6 7.5-3.9 11-3.9 5.6 0 8.4 2.5 8.4 7.6v1.4H410c-4.7 0-8.5.9-11.2 2.8s-4.1 4.7-4.1 8.4 1.3 6.7 3.9 9 5.9 3.4 9.8 3.4a16 16 0 0 0 12.7-5.6v5.1l7.2-.1zm-8-14.1c0 2.4-1 4.4-2.9 5.8s-4.1 2.1-6.7 2.1-4.5-.5-6-1.5a4.9 4.9 0 0 1-2.1-4.2c0-3.6 2.9-5.4 8.6-5.4h9l.1 3.2zm66.2-24.5c-5.6 0-10.3 2.5-14.1 7.4-2.1-5-6.2-7.4-12.2-7.4-2.7 0-5.2.7-7.5 2s-4 3.2-5.2 5.5v-6.9h-8v38h8v-20.6c0-3.5 1-6.2 3.1-8s4.5-2.8 7.2-2.8 4.8.9 6.1 2.5c1.3 1.7 1.9 4.4 1.9 8v20.9h8v-21.2c.1-3.3 1.1-5.9 3.2-7.6 2-1.7 4.4-2.6 7.1-2.6 5.8 0 8.7 3.5 8.7 10.5v20.9h8v-23.3c0-5-1.3-8.7-4-11.4-2.6-2.6-6-3.9-10.3-3.9zm-216.8 86.3c-1.7 0-3-.5-4-1.6s-1.4-2.5-1.4-4.3v-19.3h10v-6.4h-10v-11.9h-8v11.9h-4.8v6.4h4.8V471c0 4 1.2 7.2 3.6 9.5 2.4 2.4 5.3 3.5 8.7 3.5s6.5-1.3 9.3-3.8l-3.3-5.6c-1.5 1.6-3.2 2.5-4.9 2.5zm31.3-32.3c-5.2 0-9.7 1.8-13.5 5.3s-5.7 8.3-5.7 14.3 1.9 10.8 5.6 14.3 8.3 5.3 13.6 5.3a21 21 0 0 0 16-6.4l-4.6-5c-2.5 3-6.1 4.5-10.9 4.5-3 0-5.7-.8-8-2.5s-3.6-3.9-3.8-6.7h29.8v-5.5c0-5.5-1.8-9.8-5.4-12.9s-7.9-4.7-13.1-4.7zm-11.1 16.8c0-3 1.2-5.5 3.5-7.2 2.3-1.8 5-2.7 7.9-2.7s5.4.9 7.4 2.6c2 1.7 3 4.2 3 7.4h-21.8zm54.1-16.8c-5.9 0-11.1 1.8-15.7 5.5l3.6 5c3.8-2.6 7.5-3.9 11-3.9 5.6 0 8.4 2.5 8.4 7.6v1.4H341c-4.7 0-8.5.9-11.2 2.8s-4.1 4.7-4.1 8.4 1.3 6.7 3.9 9c2.6 2.2 5.9 3.4 9.8 3.4a16 16 0 0 0 12.7-5.6v5.1h7.3V459c0-4.9-1.4-8.4-4.2-10.7-3-2.3-6.7-3.5-11.2-3.5zm7.3 24.5c0 2.4-1 4.4-2.9 5.8s-4.1 2.1-6.7 2.1-4.5-.5-6-1.5a4.9 4.9 0 0 1-2.1-4.2c0-3.6 2.9-5.4 8.6-5.4h9l.1 3.2zm66.1-24.5c-5.6 0-10.3 2.5-14.1 7.4-2.1-5-6.2-7.4-12.2-7.4-2.7 0-5.2.7-7.5 2s-4 3.2-5.2 5.5v-6.9h-8v38h8v-20.6c0-3.5 1-6.2 3.1-8s4.5-2.8 7.2-2.8 4.8.9 6.1 2.5c1.3 1.7 1.9 4.4 1.9 8v20.9h8v-21.2c.1-3.3 1.1-5.9 3.2-7.6 2-1.7 4.4-2.6 7.1-2.6 5.8 0 8.7 3.5 8.7 10.5v20.9h8v-23.3c0-5-1.3-8.7-4-11.4-2.6-2.6-6-3.9-10.3-3.9zM54.2 195.4a35.2 35.2 0 0 0 20.6 6.7c8 0 16.4-2.5 24.7-7.6 24.9-15.2 46.8-52.3 40.6-94-5.5-36.2-27.4-40.2-36.6-40.2h-.1C78.7 60.3 55 85 51.8 105.5l26.8 4.2c1.5-9.6 15.6-22.4 24.7-22.4 6.3 0 8.9 10.7 9.9 17.1.5 3 .7 6.1.7 9.1-35.8 2.3-63.7 22.8-71.3 44a31.6 31.6 0 0 0 11.6 37.9zm14-28.7c3.4-9.6 18.9-21.8 40.5-25.3a62.4 62.4 0 0 1-23.3 29.9c-3.7 2.3-10.6 5.5-15.3 2.1-2.3-1.6-3.2-3.1-1.9-6.7zm117.9 17.5a64 64 0 0 0 15.5 2c15.6 0 26.2-6.7 32.8-13.2a66.3 66.3 0 0 0 16.3-57.6 49.4 49.4 0 0 0-38.5-34.9c-4-.7-9.1-1-15 .1a340.3 340.3 0 0 1 40.4-63.8L216.2 0c-39.3 49.8-72.9 117.7-59.4 157.2a40 40 0 0 0 29.3 27zm-5.2-49c.3-9.5 4.6-18.8 12.4-24.2 4.2-2.9 9-4.6 14.3-3.7 8.9 1.5 14.6 5.4 16.6 14.2 2.2 9.9.2 22.7-7.4 31.9-6.8 8.2-29.4 12-34.4-4.9-1-3.6-1.6-8-1.5-13.3zm123.3 55.1 3.9.3c13.2 0 28.7-8.8 42.3-24.1 17.8-20.1 25.4-43.3 20.4-61.9-3.4-12.6-10.3-21.5-20-25.9a36.3 36.3 0 0 0-26.1-.9 38.2 38.2 0 0 0-55.3 7.9c-12.3 18.8-7.4 50.2 2.9 73 5.1 10.7 15.7 29.3 31.9 31.6zm-12-89.9c1.6-2.4 4.9-4.1 8.4-4.1h.3c3.8 0 7 1.8 9.5 5.3l6.7 9.2 10.2-5c5.4-2.6 10-3.6 12.3-2.5 2 .9 3.8 4 5 8.3 2.5 9.4-3.3 24.2-14.5 36.9-10.1 11.4-19.3 15.4-21.6 15.1-2.7-1.1-10.3-10.4-15.3-26.7-4.7-15.2-5.1-30.2-1-36.5zm96.6 86.2-.5 3.5 26.9 3.6.6-4.3c5.3-38.3 20.8-94.4 39.4-101.4 4.6-1.7 10.6.7 17.8 7.1l18.1-20.2c-19.1-17.1-35.2-16.1-45.4-12.3-12.5 4.7-22.5 16.5-30.4 31.1-1.2-6.9-2.8-13.7-4.8-20l-25.9 8.2c11.5 36 5.9 91 4.2 104.7zM67.7 291c-15 8.8-28 10.9-34.8 5.6-5.8-4.5-7.4-14.7-4.2-26a33 33 0 0 1 17.9-22.1 34.4 34.4 0 0 1 29.3 2l12-24.4c-17.7-8.7-36.2-9.6-52.2-2.5S8 244.7 2.7 263c-6.4 22.4-1.2 43.4 13.6 54.9a42.3 42.3 0 0 0 26.5 8.5c10.2 0 23.1-3 38.6-12.1L67.7 291zm54 102.7c7.9 0 16.1-2.2 23.9-6.5 48.5-26.9 60.8-158.8 62.1-173.8l-27-2.4c-1.7 17.7-11 71.9-31.3 88.2a16.5 16.5 0 0 1-12.8 4c-1.8-.2-6.4-2.8-9.2-9.2-3.3-7.4-7.8-29.1 21.2-70.8l-22.3-15.5c-33.8 48.6-31.5 79.7-23.7 97.4a41.3 41.3 0 0 0 30.7 25.1c8.2 1 16.2-.3 23.6-3.7-6.9 18-15 31.9-24.5 37.1-6.3 3.5-12.5 4.1-16.8 1.6-5.6-3.3-8.8-12.3-8.8-24.8h-27c0 30.6 13.9 43.3 22.2 48.2a39.4 39.4 0 0 0 19.7 5.1z" />
  <path fill="#fff" d="m258.4 263.6-27 3c7 62.7-9.9 117.9-44.2 144.1-22.3 17-49.1 20-77.6 8.7l-10 25.2c14.5 5.8 28.9 8.6 42.9 8.6 22 0 42.9-7.1 61.2-21 42.5-32.4 62.9-95.4 54.7-168.6zm-13.6-18.5c17.9-1.1 32.8-34.5 0-33.9-23.9.4-17.9 35 0 33.9zM345 214.8c-8.9 4.8-17.4 15.4-25.1 28.4l2.6-21.5-27-3.2-15.2 126.6 26.5 5.2c15.4-55.6 39.7-108.5 51.5-112 1 .4 3 1.6 5 5.8 9.9 21.6.3 75.8-8.7 96.9l25 10.6c8.6-20.3 23.8-85.4 8.4-118.9a36 36 0 0 0-21.8-20.5 27.2 27.2 0 0 0-21.2 2.6zm184.2-26.6-27-1.5c-3.3 26.7-17.8 81.7-41.3 81.7h-.2c-1.9 0-3.1-.7-4.2-2.3-2-2.8-10.7-19.9 10.3-79.7l-25.6-9c-17.7 50.4-20.1 85.5-6.9 104.3a32 32 0 0 0 26.2 13.9c13.7.2 24.5-5.7 33.4-14.7-6.1 28.9-15.6 52.4-29.1 58.5-12.9 5.8-30.7-6.6-43.4-18.1l-18.4 20c19.6 17.8 37.8 26.7 54.4 26.7 6.4 0 12.5-1.3 18.4-4 24.6-11.1 40.4-43.9 48.4-100.2 5.5-38.6 5-74.1 5-75.6z" />
</svg>