<svg xmlns="http://www.w3.org/2000/svg" viewBox="0 0 28.96 32">
  <path fill="#ffdbed" d="M18.17 4.48C14.69-1.34 6.91-1.13 4.63 3c-4.43 8.1-.39 27.36 5.88 28.84 6.91 1.66 18.79-12.3 19.39-21.42.33-4.93-4.07-8.85-11.73-5.94Z" transform="translate(-1.52)"/>
  <path fill="#f5007e" d="M10.48 9.13c-.58-3.78-2.87-4.2-3.84-4.21-2.57 0-5 2.59-5.39 4.74l2.8.45a3.41 3.41 0 0 1 2.53-2.34c.67 0 .94 1.12 1 1.79a7.43 7.43 0 0 1 .07.94C3.9 10.75.99 12.89.19 15.11a3.3 3.3 0 0 0 1.2 4 3.62 3.62 0 0 0 2.16.7A5 5 0 0 0 6.18 19a10.07 10.07 0 0 0 4.3-9.87ZM4.7 16.55c-.38.24-1.11.58-1.6.22-.24-.17-.33-.32-.2-.7.36-1 2-2.28 4.25-2.65a6.47 6.47 0 0 1-2.45 3.13ZM11.19 12.37a36 36 0 0 1 4.23 6.68 4.59 4.59 0 0 0-1.57 0 5.17 5.17 0 0 0-4 3.65 6.94 6.94 0 0 0 1.71 6 4.76 4.76 0 0 0 3.43 1.38 6.32 6.32 0 0 0 1.28-.08 4.5 4.5 0 0 0 2.33-1.19c3.54-3.56-.42-12.13-5.18-18.16Zm5.92 12.32a3.77 3.77 0 0 1-.16 1.46 1.51 1.51 0 0 1-1.06 1.11 2.38 2.38 0 0 1-2.41-.57 4.11 4.11 0 0 1-.92-3.36 1.88 1.88 0 0 1 2-1.6c1.72 0 2.51 2.04 2.55 2.96ZM26.12 12.43c0 1.3-.33 2.25-.92 2.6a1.82 1.82 0 0 1-1.72-.17c-1.22-.67-2.36-2.87-3.3-6.16l2.3-.41-.48-2.8-2.52.44a64.31 64.31 0 0 1-.63-3.51l-2.81.42c.19 1.27.41 2.46.64 3.57l-2.08.36.48 2.8 2.27-.39c1.19 4.33 2.77 7.07 4.74 8.16a5.17 5.17 0 0 0 2.5.68 4 4 0 0 0 2.07-.55c.87-.51 2.32-1.84 2.32-5Z"/>
</svg>
