<svg data-name="Warstwa 1" xmlns="http://www.w3.org/2000/svg" viewBox="0 0 1000 1000">
  <path style="fill:#000" transform="rotate(-81.36 695.1604 171.526)" d="M661.97 156.23h66.37v30.6h-66.37z"/>
  <path style="fill:#000" transform="rotate(-42.77 777.258 202.1983)" d="M735.65 186.89h83.22v30.62h-83.22z"/>
  <path style="fill:#000" transform="rotate(-3.7 808.0381 290.4632)" d="M776.61 275.06h62.05v30.61h-62.05z"/>
  <path d="M709.36 309.29c-57.82-81.41-412.78-89.76-499.66 0-79.45 82.09-58.3 369.25 31.09 440.39 72.1 57.39 300.97-53.25 368.48 9.47 19.54 18.16 7.64 61.01-3.55 89.68-3.73 9.55 6.71 18.46 15.49 13.16 44.19-26.72 129.59-96.24 147.71-208.9 13.14-81.68 4.44-253.68-59.56-343.8Z" style="fill:#f5007e"/>
  <path style="fill:#000" d="M402.23 360.97c-11.31-74.93-56.77-83.18-75.78-83.24h-.27c-50.93 0-100 51.22-106.73 93.76l55.5 8.77c3.15-19.97 32.33-46.35 51.23-46.35h.07c13.12.04 18.42 22.22 20.42 35.44.95 6.28 1.45 12.54 1.54 18.74-74.22 4.81-131.91 47.28-147.66 91.08-10.94 30.4-2.03 59.72 23.81 78.42 12.74 9.22 27.31 13.82 42.74 13.82 16.49 0 33.95-5.25 51.16-15.74 51.59-31.42 97.01-108.39 83.98-194.7Zm-113.2 146.72c-7.67 4.67-22 11.44-31.73 4.39-4.78-3.46-6.58-6.42-3.89-13.89 7.11-19.77 39.13-45.19 83.95-52.38-10.98 27.64-29.05 50.14-48.34 61.89Zm128.36-82.64c36.67 46.49 64.35 91.65 83.58 132-12.12-2.12-22.86-1.49-31.05-.1-37.45 6.31-71.74 37.37-79.76 72.24-7.85 34.11 1.29 87.5 33.66 119.26 13.73 13.47 35.72 27.36 68.01 27.36 8 0 16.64-.85 25.94-2.78 17.29-3.58 33.77-11.02 46.21-23.55 69.97-70.49-8.39-239.95-102.47-359.22l-44.11 34.79Zm117.12 243.61c.55 11.55-.51 21.32-3.13 29-3.72 10.87-9.91 19.15-21.01 21.93-20.42 5.12-35.97-.2-47.23-11.23-17.63-17.29-21.98-50.33-18.24-66.56 2.31-10.06 9.34-31.65 39.53-31.65 33.57 0 49.21 40.36 50.08 58.52Zm178.23-242.49c0 25.83-6.64 44.54-18.21 51.35-8.75 5.16-21.74 3.91-34.72-3.3-23.96-13.32-46.7-56.75-65.25-121.9l46.57-7.97-9.48-55.37-50.61 8.67c-4.61-21.64-8.82-44.86-12.55-69.52l-55.54 8.39c3.8 25.17 8.06 48.59 12.66 70.62l-41.17 7.05 9.48 55.37 44.81-7.67c23.61 85.66 54.98 139.88 93.79 161.45 16.14 8.97 33.18 13.47 49.51 13.47 14.62 0 28.67-3.61 40.99-10.86 17.15-10.09 45.9-36.46 45.9-99.77h-56.18Z"/>
</svg>
